<svg id="Layer_1" data-name="Layer 1" xmlns="http://www.w3.org/2000/svg" viewBox="0 0 933.8146 330.9212"><defs><style>.cls-1{fill:#e91d25;}.cls-2{font-size:142.8965px;font-family:FranklinGothic-Heavy, Franklin Gothic Heavy;font-weight:800;}.cls-2,.cls-7{fill:#fff;}.cls-3{letter-spacing:0.0049em;}.cls-4{letter-spacing:0.0078em;}.cls-5{letter-spacing:0em;}.cls-6{letter-spacing:0.0122em;}.cls-7{font-size:45.4027px;font-family:MonoLisa-Regular, MonoLisa;}</style></defs><polygon class="cls-1" points="314.041 0 314.041 207.469 283.403 227.183 279.145 229.925 251.162 247.933 244.253 252.377 244.253 210.887 251.165 206.44 279.145 188.431 279.145 63.946 209.36 108.857 186.682 123.452 174.465 131.313 154.444 144.195 139.573 153.765 122.202 164.946 139.573 176.123 154.444 185.693 174.465 198.575 186.682 206.44 209.36 221.034 209.36 274.833 186.682 289.427 174.465 297.288 154.444 310.174 139.573 319.744 122.202 330.921 104.68 319.646 89.964 310.174 104.68 300.706 122.206 289.427 139.573 278.25 154.444 268.68 174.465 255.798 174.465 240.069 154.444 227.186 139.573 217.617 122.206 206.44 104.68 195.161 89.964 185.693 69.785 172.705 69.785 157.186 89.964 144.199 104.68 134.727 122.206 123.452 104.68 112.173 69.785 89.718 34.892 67.262 34.892 191.747 57.723 206.44 69.785 214.199 89.964 227.186 104.68 236.658 122.202 247.933 104.68 259.209 89.964 268.68 69.785 255.693 57.726 247.933 34.892 233.238 25.485 227.186 0 210.785 0 3.316 34.892 25.768 69.785 48.224 104.68 70.679 139.573 93.135 154.444 102.705 174.465 89.819 209.36 67.363 244.253 44.908 279.145 22.456 314.041 0"/><text class="cls-2" transform="translate(330.4609 140.8571) scale(1.2212 1)">M<tspan class="cls-3" x="120.1503" y="0">s</tspan><tspan class="cls-4" x="196.5524" y="0">t</tspan><tspan class="cls-5" x="250.7662" y="0">a</tspan><tspan class="cls-6" x="334.5651" y="0">c</tspan><tspan x="411.0368" y="0">k</tspan></text><text class="cls-7" transform="translate(339.5981 202.7404)">fostering Creativity</text></svg>