<svg id="Layer_1" data-name="Layer 1" xmlns="http://www.w3.org/2000/svg" viewBox="0 0 581.1861 204.5896">
  <defs>
    <style>
      .cls-1 {
        fill: #d71f26;
      }

      .cls-2 {
        fill: #fff;
      }
    </style>
  </defs>
  <g>
    <polygon class="cls-1" points="194.153 0 194.153 128.266 175.212 140.454 172.579 142.149 155.279 153.283 151.007 156.03 151.007 130.379 155.281 127.63 172.579 116.496 172.579 39.534 129.436 67.3 115.415 76.323 107.862 81.183 95.484 89.148 86.29 95.064 75.551 101.976 86.29 108.887 95.484 114.803 107.862 122.768 115.415 127.63 129.436 136.653 129.436 169.913 115.415 178.936 107.862 183.796 95.484 191.763 86.29 197.679 75.551 204.59 64.718 197.619 55.62 191.763 64.718 185.909 75.553 178.936 86.29 172.026 95.484 166.11 107.862 158.145 107.862 148.421 95.484 140.456 86.29 134.54 75.553 127.63 64.718 120.657 55.62 114.803 43.144 106.774 43.144 97.179 55.62 89.15 64.718 83.294 75.553 76.323 64.718 69.35 43.144 55.467 21.572 41.584 21.572 118.546 35.687 127.63 43.144 132.427 55.62 140.456 64.718 146.312 75.551 153.283 64.718 160.254 55.62 166.11 43.144 158.08 35.689 153.283 21.572 144.197 15.756 140.456 0 130.317 0 2.05 21.572 15.931 43.144 29.814 64.718 43.697 86.29 57.58 95.484 63.496 107.862 55.53 129.436 41.647 151.007 27.764 172.579 13.883 194.153 0"/>
    <g>
      <path class="cls-2" d="M362.0679,425.8926h12.3188L402.05,469.4272l27.4473-43.5346h12.4267V487.832h-9.7251l-.1084-49.4633-26.9067,42.9155h-6.3755l-27.123-42.9155V487.832h-9.6172Z" transform="translate(-149.5775 -405.1975)"/>
      <path class="cls-2" d="M485.958,448.5444a33.8225,33.8225,0,0,0-8.1587-1.0615,16.4694,16.4694,0,0,0-7.2939,1.3716,4.4534,4.4534,0,0,0-2.7554,4.2026q0,2.8331,3.08,4.2915a50.9663,50.9663,0,0,0,9.3472,2.9644,84.5725,84.5725,0,0,1,9.7255,2.8315,17.186,17.186,0,0,1,6.4292,4.1587,10.01,10.01,0,0,1,2.6475,7.2559q0,6.6365-6.1055,10.0874t-15.1821,3.4512a45.6252,45.6252,0,0,1-12.373-1.6812,30.0647,30.0647,0,0,1-10.1036-4.7783l3.7823-6.0171a28.5013,28.5013,0,0,0,8.8066,4.2471,35.0213,35.0213,0,0,0,10.2119,1.5927,18.06,18.06,0,0,0,7.9961-1.5039,4.8781,4.8781,0,0,0,3.0259-4.6015,5.1028,5.1028,0,0,0-3.1875-4.7779,49.2145,49.2145,0,0,0-9.6714-3.1855,74.5355,74.5355,0,0,1-9.3472-2.6987,16.4413,16.4413,0,0,1-6.16-4.0264,9.5688,9.5688,0,0,1-2.54-6.9019,10.593,10.593,0,0,1,5.8355-9.8217q5.8351-3.2725,14.5879-3.274a44.0021,44.0021,0,0,1,10.2119,1.1944,34.2991,34.2991,0,0,1,8.6987,3.23l-3.6738,6.2822A38.518,38.518,0,0,0,485.958,448.5444Z" transform="translate(-149.5775 -405.1975)"/>
      <path class="cls-2" d="M542.959,484.7349a28.6039,28.6039,0,0,1-13.3994,3.4506q-6.8072,0-11.0225-3.3178t-4.2139-10.043V448.8984h-8.1044v-6.2822h8.1044V430.0513h10.1573v12.5649h17.5058v6.2822H524.4805V473.32q0,3.895,1.73,5.5747a7.1621,7.1621,0,0,0,5.1865,1.6812,21.1314,21.1314,0,0,0,8.8613-2.2119Z" transform="translate(-149.5775 -405.1975)"/>
      <path class="cls-2" d="M590.0713,487.832v-6.5478q-6.3765,6.9016-19.99,6.9013a27.0816,27.0816,0,0,1-10.4278-1.8579,15.9662,15.9662,0,0,1-6.916-5.1318,12.0124,12.0124,0,0,1-2.4316-7.3442q0-6.282,5.6728-9.9546,5.6733-3.671,15.8311-3.7608h18.1543v-2.2124a8.892,8.892,0,0,0-3.7285-7.6538q-3.7281-2.6982-10.8594-2.6987a35.782,35.782,0,0,0-17.6143,5.0434l-4.2138-5.663a57.55,57.55,0,0,1,11.4-4.7339,46.8926,46.8926,0,0,1,12.4805-1.46q10.6977,0,16.5332,4.2915a14.3032,14.3032,0,0,1,5.9434,11.99l.1084,30.7929Zm-5.9971-9.2466q4.9161-2.7874,5.89-7.3886v-4.69H573.2148q-6.8085,0-10.1044,1.6812a5.5781,5.5781,0,0,0-3.295,5.3091,6.5147,6.5147,0,0,0,3.35,5.7514q3.3473,2.1234,8.9688,2.1236A23.869,23.869,0,0,0,584.0742,478.5854Z" transform="translate(-149.5775 -405.1975)"/>
      <path class="cls-2" d="M641.7236,448.1021a23.4554,23.4554,0,0,0-9.9951,2.0351,16.3218,16.3218,0,0,0-6.8623,5.7515,15.0706,15.0706,0,0,0-2.4853,8.5835,15.32,15.32,0,0,0,2.4316,8.583,16.3676,16.3676,0,0,0,6.6992,5.7954,22.0528,22.0528,0,0,0,9.78,2.08,30.7845,30.7845,0,0,0,9.9414-1.5044,19.238,19.238,0,0,0,7.3477-4.3355l5.7275,4.7779a25.4235,25.4235,0,0,1-9.8877,6.1054,40.4637,40.4637,0,0,1-13.5615,2.1241,34.7776,34.7776,0,0,1-14.8047-3.0088,24.0977,24.0977,0,0,1-10.1035-8.3618,22.6289,22.6289,0,0,1,0-24.5547,24,24,0,0,1,10.1035-8.4058,34.8062,34.8062,0,0,1,14.8047-3.0088,43.4586,43.4586,0,0,1,13.0215,1.814,26.1527,26.1527,0,0,1,9.6709,5.2651L658.041,453.5A25.4656,25.4656,0,0,0,641.7236,448.1021Z" transform="translate(-149.5775 -405.1975)"/>
      <path class="cls-2" d="M718.6611,487.832l-18.2617-22.7407-11.1308,9.4678V487.832H679.22V422.1758h10.0489v41.8535l27.664-23.0059h11.7783l-21.288,18.1392,23.3408,28.6694Z" transform="translate(-149.5775 -405.1975)"/>
    </g>
    <g>
      <path class="cls-2" d="M369.7988,506.8047q-3.71,0-3.7094,2.8623v.8467h7.4477v2.22h-7.4477v13.7275h-2.6285V512.7334h-4.1767v-2.22h4.1767v-.6426a4.93,4.93,0,0,1,1.5918-3.9277,6.56,6.56,0,0,1,4.4536-1.3877,13.6125,13.6125,0,0,1,4.0308.6132v2.3077A10.8392,10.8392,0,0,0,369.7988,506.8047Z" transform="translate(-149.5775 -405.1975)"/>
      <path class="cls-2" d="M384.665,526.7529a6.1992,6.1992,0,0,1-4.9946-2.0586,8.7347,8.7347,0,0,1-1.7524-5.8271,9.7747,9.7747,0,0,1,1.9277-6.47,6.6715,6.6715,0,0,1,5.4033-2.292,6.2647,6.2647,0,0,1,5.0088,2.0439,8.6243,8.6243,0,0,1,1.7671,5.8125,9.8206,9.8206,0,0,1-1.9277,6.4981A6.7032,6.7032,0,0,1,384.665,526.7529ZM381.6128,523a3.8844,3.8844,0,0,0,3.3442,1.3291,3.8456,3.8456,0,0,0,3.3443-1.3584,8.1307,8.1307,0,0,0,.9785-4.6q0-3.2124-.9785-4.5273a4.8536,4.8536,0,0,0-6.6739.0292q-.9932,1.3434-.9931,4.585Q380.6343,521.6719,381.6128,523Z" transform="translate(-149.5775 -405.1975)"/>
      <path class="cls-2" d="M397.603,523.0439a13.171,13.171,0,0,0,5.5786,1.2852q3.8556,0,3.855-2.1328a1.7947,1.7947,0,0,0-.978-1.6055,7.7009,7.7009,0,0,0-2.3657-.8769q-1.3879-.2916-2.7749-.6719a5.0513,5.0513,0,0,1-2.3658-1.4014,3.7245,3.7245,0,0,1-.9785-2.6875,4.39,4.39,0,0,1,1.5625-3.5185,6.7286,6.7286,0,0,1,4.4834-1.3291,14.373,14.373,0,0,1,5.4326,1.0507V513.64a12.54,12.54,0,0,0-5.0527-1.11q-3.7676,0-3.7681,2.19a1.8953,1.8953,0,0,0,.9786,1.709,7.43,7.43,0,0,0,2.38.8906q1.4019.2916,2.8042.6719a5.1769,5.1769,0,0,1,2.38,1.3721,3.6249,3.6249,0,0,1,.9785,2.6582,4.1806,4.1806,0,0,1-1.6206,3.4316,7.3967,7.3967,0,0,1-4.7173,1.3,13.2316,13.2316,0,0,1-5.812-1.1972Z" transform="translate(-149.5775 -405.1975)"/>
      <path class="cls-2" d="M428.5913,512.7334H421.582v8.3242a3.3976,3.3976,0,0,0,.7886,2.4678,3.6262,3.6262,0,0,0,2.6577.8037,8.6055,8.6055,0,0,0,3.563-.76v2.5118a11.56,11.56,0,0,1-3.8257.6718,5.9433,5.9433,0,0,1-4.352-1.4453,5.2393,5.2393,0,0,1-1.46-3.8994v-8.6748h-3.709V511.04l3.709-.6425.6133-3.5928h2.0156v3.5928h7.0093Z" transform="translate(-149.5775 -405.1975)"/>
      <path class="cls-2" d="M448.16,517.9619q0,.9639-.0293,1.46h-11.42a5.7032,5.7032,0,0,0,1.3291,3.7676,4.648,4.648,0,0,0,3.4024,1.14,10.24,10.24,0,0,0,5.4912-1.6357v2.5117a11.2369,11.2369,0,0,1-5.7539,1.5478,6.9584,6.9584,0,0,1-5.3013-2.0156,8.12,8.12,0,0,1-1.9126-5.8115,9.7392,9.7392,0,0,1,1.9859-6.44,6.8282,6.8282,0,0,1,5.5493-2.38,6.11,6.11,0,0,1,4.9507,2.0293A8.8177,8.8177,0,0,1,448.16,517.9619Zm-6.8638-5.4326a4.5281,4.5281,0,0,0-3.3,1.0664,5.4573,5.4573,0,0,0-1.2559,3.5772h8.6744a6.0219,6.0219,0,0,0-1.066-3.5918A3.8715,3.8715,0,0,0,441.2964,512.5293Z" transform="translate(-149.5775 -405.1975)"/>
      <path class="cls-2" d="M467.2319,512.6758a11.8589,11.8589,0,0,0-7.6518,2.4531v8.9951h6.0747v2.3369H452.8042V524.124h4.147V512.7334H453.68v-2.3359h5.2573l.4966,3.1836a9.3976,9.3976,0,0,1,3.49-2.7745,9.9375,9.9375,0,0,1,4.3076-1.0224Z" transform="translate(-149.5775 -405.1975)"/>
      <path class="cls-2" d="M480.667,524.124h4.4394v2.3369h-12.851V524.124h5.7827V512.7334h-4.9068v-2.3359h7.5357Zm.4673-20.4736v3.9141H477.6V503.65Z" transform="translate(-149.5775 -405.1975)"/>
      <path class="cls-2" d="M499.33,510.1055a4.2121,4.2121,0,0,1,3.2265,1.2265,5.1012,5.1012,0,0,1,1.1543,3.6211v11.5078h-2.6V515.3037q0-2.9487-2.6284-2.9492a4.1472,4.1472,0,0,0-2.4385.8174,15.0407,15.0407,0,0,0-2.7895,2.8916v10.3974h-2.5991V510.3975h1.9565l.4966,3.7675Q495.62,510.106,499.33,510.1055Z" transform="translate(-149.5775 -405.1975)"/>
      <path class="cls-2" d="M513.1445,522.6934a24.387,24.387,0,0,1,7.9883,1.0664q2.6133,1.0063,2.6133,3.3437,0,2.6572-3.5625,3.9287t-11.3613,1.27v-2.4541a63.2719,63.2719,0,0,0,7.33-.3359,12.2033,12.2033,0,0,0,3.7969-.8906,1.6211,1.6211,0,0,0,1.0518-1.4014q0-2.3364-8.9082-2.3369l-1.5186-1.5479,1.4307-4.1474a4.0218,4.0218,0,0,1-2.7744-3.9717,4.4349,4.4349,0,0,1,1.7968-3.7686,8.2179,8.2179,0,0,1,5.0088-1.3427,9.6012,9.6012,0,0,1,3.2129.4961l1.1387-3.2129h3.0371l-2.7451,3.9726a4.0768,4.0768,0,0,1,1.6064,3.3877,4.3359,4.3359,0,0,1-1.7959,3.6944,8.2228,8.2228,0,0,1-4.98,1.3291,12.06,12.06,0,0,1-1.8692-.1455Zm5.52-9.5948a7.6259,7.6259,0,0,0-5.7823,0,2.2937,2.2937,0,0,0,0,3.6514,7.6259,7.6259,0,0,0,5.7823,0,2.2922,2.2922,0,0,0,0-3.6514Z" transform="translate(-149.5775 -405.1975)"/>
      <path class="cls-2" d="M557.9766,514.4277a7.7753,7.7753,0,0,0-1.1387-4.7021,4.098,4.098,0,0,0-3.4756-1.4893,4.0272,4.0272,0,0,0-3.7383,1.8838q-1.14,1.8839-1.14,6.1475,0,4.2655,1.14,6.1045a4.0845,4.0845,0,0,0,3.7676,1.84,11.484,11.484,0,0,0,6.1914-1.9863v2.833a13.9368,13.9368,0,0,1-6.5127,1.6943,6.4361,6.4361,0,0,1-5.4765-2.6q-1.9425-2.5986-1.9424-7.331,0-5.3145,2.0888-8.2071a6.8654,6.8654,0,0,1,5.9141-2.8906,6.4622,6.4622,0,0,1,5.2422,2.292,9.7273,9.7273,0,0,1,1.9131,6.4111Z" transform="translate(-149.5775 -405.1975)"/>
      <path class="cls-2" d="M579.3857,512.6758a11.8584,11.8584,0,0,0-7.6523,2.4531v8.9951h6.0752v2.3369H564.957V524.124h4.1475V512.7334H565.834v-2.3359h5.2568l.4961,3.1836a9.4056,9.4056,0,0,1,3.49-2.7745,9.9417,9.9417,0,0,1,4.3086-1.0224Z" transform="translate(-149.5775 -405.1975)"/>
      <path class="cls-2" d="M597.6982,517.9619q0,.9639-.0293,1.46h-11.42a5.7058,5.7058,0,0,0,1.3291,3.7676,4.6478,4.6478,0,0,0,3.4024,1.14,10.2417,10.2417,0,0,0,5.4912-1.6357v2.5117a11.2371,11.2371,0,0,1-5.7539,1.5478,6.9557,6.9557,0,0,1-5.3008-2.0156,8.12,8.12,0,0,1-1.9131-5.8115,9.7344,9.7344,0,0,1,1.9863-6.44,6.8269,6.8269,0,0,1,5.5489-2.38,6.1081,6.1081,0,0,1,4.95,2.0293A8.8122,8.8122,0,0,1,597.6982,517.9619Zm-6.8632-5.4326a4.5278,4.5278,0,0,0-3.3008,1.0664,5.46,5.46,0,0,0-1.2559,3.5772h8.6748a6.021,6.021,0,0,0-1.0664-3.5918A3.8711,3.8711,0,0,0,590.835,512.5293Z" transform="translate(-149.5775 -405.1975)"/>
      <path class="cls-2" d="M616.1279,526.4609h-2.6l-.584-3.1836a5.7011,5.7011,0,0,1-5.5791,3.4756,5.1856,5.1856,0,0,1-3.5918-1.1533,4.1119,4.1119,0,0,1-1.2851-3.2275,4.4733,4.4733,0,0,1,2.3652-4.1035q2.3658-1.3872,7.74-1.417V515.48q0-2.95-3.3008-2.95a11.9693,11.9693,0,0,0-5.3741,1.373v-2.5117a14.3821,14.3821,0,0,1,5.6954-1.2851,5.8762,5.8762,0,0,1,4.1328,1.3574,4.8509,4.8509,0,0,1,1.4756,3.7539v6.3086Zm-8.1484-2.1318a4.5644,4.5644,0,0,0,3.3291-1.2559,4.2632,4.2632,0,0,0,1.2852-3.1836v-1.2851a15.7766,15.7766,0,0,0-5.6807.7734,2.5792,2.5792,0,0,0-1.709,2.5264Q605.2041,524.33,607.98,524.3291Z" transform="translate(-149.5775 -405.1975)"/>
      <path class="cls-2" d="M634.207,512.7334h-7.01v8.3242a3.4,3.4,0,0,0,.7881,2.4678,3.63,3.63,0,0,0,2.6582.8037,8.6077,8.6077,0,0,0,3.5634-.76v2.5118a11.5605,11.5605,0,0,1-3.8261.6718,5.9407,5.9407,0,0,1-4.3516-1.4453,5.236,5.236,0,0,1-1.4609-3.8994v-8.6748h-3.709V511.04l3.709-.6425.6132-3.5928h2.0157v3.5928h7.01Z" transform="translate(-149.5775 -405.1975)"/>
      <path class="cls-2" d="M648.8965,524.124h4.4394v2.3369H640.4854V524.124h5.7832V512.7334h-4.9073v-2.3359h7.5352Zm.4678-20.4736v3.9141H645.83V503.65Z" transform="translate(-149.5775 -405.1975)"/>
      <path class="cls-2" d="M670.3926,510.3975h2.57a73.2543,73.2543,0,0,1-6.0459,16.0634h-3.1543a73.2925,73.2925,0,0,1-6.0449-16.0634h2.5693a81.6319,81.6319,0,0,0,5.0527,13.9609A79.8547,79.8547,0,0,0,670.3926,510.3975Z" transform="translate(-149.5775 -405.1975)"/>
      <path class="cls-2" d="M686.2812,524.124h4.4395v2.3369H677.87V524.124h5.7832V512.7334h-4.9072v-2.3359h7.5351Zm.4678-20.4736v3.9141h-3.5342V503.65Z" transform="translate(-149.5775 -405.1975)"/>
      <path class="cls-2" d="M708.9756,512.7334h-7.01v8.3242a3.4,3.4,0,0,0,.7881,2.4678,3.63,3.63,0,0,0,2.6582.8037,8.6078,8.6078,0,0,0,3.5635-.76v2.5118a11.5615,11.5615,0,0,1-3.8262.6718,5.94,5.94,0,0,1-4.3515-1.4453,5.2357,5.2357,0,0,1-1.461-3.8994v-8.6748h-3.709V511.04l3.709-.6425.6133-3.5928h2.0156v3.5928h7.01Z" transform="translate(-149.5775 -405.1975)"/>
      <path class="cls-2" d="M726.0322,510.3975h2.8623l-5.6074,16.414q-1.8707,5.49-8.3535,5.4912v-2.4541a7.6305,7.6305,0,0,0,3.8848-.832,4.6624,4.6624,0,0,0,2.0146-2.5557h-1.4014L713.94,510.3975h2.8623l4.6143,14.5449Z" transform="translate(-149.5775 -405.1975)"/>
    </g>
  </g>
</svg>
